<svg xmlns="http://www.w3.org/2000/svg" viewBox="0 0 400 400" width="400" height="400">
  <circle cx="200.0" cy="200.0" r="200.0" fill="#7d8a6e"/>
  <g transform="translate(35.00,94.26) scale(0.165000)">
    <path d="M0 0 C1.11785889 -0.00315216 2.23571777 -0.00630432 3.38745117 -0.009552 C3.99576782 -0.00853989 3.99576782 -0.00853989 7.07421875 -0.00341797 C8.31341064 -0.00437469 9.55260254 -0.00533142 10.8293457 -0.00631714 C13.45560156 -0.00699921 16.08176508 -0.00564085 18.70800781 -0.00097656 C22.08100589 0.00472073 25.4539244 0.00144151 28.82691956 -0.00454903 C32.03435552 -0.00902317 35.24178175 -0.00589429 38.44921875 -0.00341797 C39.66585205 -0.0054422 40.88248535 -0.00746643 42.13598633 -0.009552 C42.69491577 -0.00797592 42.69491577 -0.00797592 45.5234375 0 C46.51303467 0.00079559 47.50263184 0.00159119 48.5222168 0.00241089 C50.76171875 0.12939453 50.76171875 0.12939453 51.76171875 1.12939453 C51.8615208 3.25115233 51.88912165 5.37630386 51.8903532 7.50040722 C51.89210624 8.17707291 51.89385928 8.8537386 51.89566544 9.55090931 C51.90036391 11.84696291 51.89785009 14.14295424 51.89543152 16.43901062 C51.89729763 18.09061431 51.89959752 19.74221757 51.90229684 21.39382011 C51.90844731 25.95532807 51.90827742 30.5168178 51.90710247 35.07832897 C51.90689924 39.99016473 51.9124101 44.90199451 51.91716003 49.81382751 C51.92548783 59.45114016 51.92821594 69.08844669 51.92877241 78.72576263 C51.92924712 86.56689432 51.93129961 94.40802399 51.93447304 102.24915504 C51.94328989 124.48816482 51.94789148 146.72716976 51.94714256 168.9661813 C51.94712259 169.56638175 51.94712259 169.56638175 51.94702148 172.60375977 C51.9469806 173.8056318 51.94693972 175.00750384 51.9468976 176.24579624 C51.94649213 195.67572365 51.9560341 215.10563158 51.97015985 234.53555336 C51.98455483 254.49397165 51.99142814 274.45238048 51.99056607 294.41080409 C51.9902349 305.61212631 51.99294618 316.81342818 52.00374413 328.01474571 C52.01289083 337.56466385 52.01499082 347.11455244 52.0082347 356.66447308 C52.00498877 361.52989136 52.00484201 366.39525313 52.01358795 371.26066589 C52.09085388 417.08357956 52.09085388 417.08357956 48.01171875 438.12939453 C47.8425293 439.02198975 47.67333984 439.91458496 47.49902344 440.83422852 C39.87822195 479.52367052 23.94740524 514.53839455 -2.23828125 544.12939453 C-2.98722656 545.00080078 -3.73617188 545.87220703 -4.5078125 546.77001953 C-17.98930295 562.21907886 -34.38826724 575.0804272 -52.23828125 585.12939453 C-52.92728516 585.51836914 -53.61628906 585.90734375 -54.32617188 586.30810547 C-110.51404482 617.68415832 -180.73603882 623.88363482 -242.5703125 606.81689453 C-276.6691224 596.89553896 -308.13899067 580.35401449 -333.75976562 555.55664062 C-335.29672534 554.07297707 -336.8532989 552.61167176 -338.41015625 551.14892578 C-377.25875364 514.08419256 -398.79663792 458.55113574 -400.34667969 405.41333008 C-400.40810891 401.31796492 -400.43262774 397.2251144 -400.42578125 393.12939453 C-400.42484467 392.40196045 -400.42390808 391.67452637 -400.42294312 390.92504883 C-400.39040161 379.22549573 -400.05217195 367.70461174 -398.23828125 356.12939453 C-398.16826904 355.67193848 -398.16826904 355.67193848 -397.81396484 353.35693359 C-391.86110183 316.15617595 -377.37809014 280.25756846 -353.23828125 251.12939453 C-352.75182129 250.5414209 -352.26536133 249.95344727 -351.76416016 249.34765625 C-342.72142305 238.48431091 -333.35528163 228.91517596 -322.23828125 220.12939453 C-321.72604004 219.71898926 -321.21379883 219.30858398 -320.68603516 218.88574219 C-312.90237245 212.65641336 -304.92698035 207.0555564 -296.23828125 202.12939453 C-295.8942627 201.93345703 -295.8942627 201.93345703 -294.15332031 200.94189453 C-273.69967595 189.4237842 -251.7688411 181.43175861 -228.73828125 176.94189453 C-227.94486328 176.78688477 -227.15144531 176.631875 -226.33398438 176.47216797 C-211.89396276 173.81885735 -197.58691089 172.71899882 -182.92578125 172.75439453 C-182.10733734 172.75460602 -181.28889343 172.7548175 -180.44564819 172.7550354 C-158.5154263 172.81109167 -137.23393084 175.65947845 -116.23828125 182.12939453 C-115.48933594 182.35353027 -114.74039062 182.57766602 -113.96875 182.80859375 C-95.86534448 188.27122697 -78.74982093 196.22745945 -63.23828125 207.12939453 C-62.17939697 207.74556641 -61.1205127 208.36173828 -60.02954102 208.99658203 C-57.84003308 210.86580424 -57.28783317 211.88109794 -56.71730042 214.73994446 C-56.54193239 218.13154568 -56.56466526 221.4726079 -56.65234375 224.86767578 C-56.66083344 226.10357956 -56.66932312 227.33948334 -56.67807007 228.61283875 C-56.70593075 231.88675364 -56.75975871 235.15887606 -56.82629395 238.43218994 C-56.88785399 241.77705371 -56.91460111 245.12199577 -56.9453125 248.46728516 C-57.01143368 255.02202036 -57.11181491 261.57556092 -57.23828125 268.12939453 C-61.26108679 266.61656243 -63.88157965 264.92106089 -67.11328125 262.06689453 C-73.69344929 256.57020798 -80.74541761 252.27067542 -88.23828125 248.12939453 C-88.87926758 247.77458008 -89.52025391 247.41976562 -90.18066406 247.05419922 C-111.79118819 235.27553911 -137.39442184 228.12924238 -162.046875 227.89111328 C-162.88233856 227.88131943 -163.71780212 227.87152557 -164.57858276 227.86143494 C-182.77446994 227.69214098 -200.46914181 227.69645112 -218.23828125 232.12939453 C-218.66681396 232.23388916 -218.66681396 232.23388916 -220.83544922 232.76269531 C-258.45535417 242.24401929 -291.88650321 264.54628719 -313.23828125 297.12939453 C-313.66979492 297.78633301 -314.10130859 298.44327148 -314.54589844 299.12011719 C-321.68357538 310.17792766 -326.84907827 321.74203187 -331.23828125 334.12939453 C-331.4894873 334.82967773 -331.74069336 335.52996094 -331.99951172 336.25146484 C-347.35545155 380.13471274 -343.00348274 432.06524291 -323.39941406 473.79589844 C-304.1917581 512.39698668 -271.78965997 537.8341952 -231.8125 552.37548828 C-225.48949563 554.44030674 -219.04629765 555.91307381 -212.55078125 557.31689453 C-212.16470703 557.40052246 -212.16470703 557.40052246 -210.2109375 557.82373047 C-198.30895006 560.27800934 -186.46876033 560.37099546 -174.36328125 560.37939453 C-173.49078735 560.38006927 -172.61829346 560.38074402 -171.71936035 560.38143921 C-158.99404812 560.36579357 -146.68616024 560.00633836 -134.23828125 557.12939453 C-133.47322266 556.96310547 -132.70816406 556.79681641 -131.91992188 556.62548828 C-101.90955256 549.98928868 -75.08671901 535.70336327 -53.23828125 514.12939453 C-52.67036865 513.5819458 -52.10245605 513.03449707 -51.51733398 512.47045898 C-27.78911738 489.31931883 -15.11229886 457.07413223 -9.48828125 424.94189453 C-9.37250732 424.29075684 -9.2567334 423.63961914 -9.13745117 422.96875 C-7.03341127 409.81330049 -7.08868033 396.35312366 -7.08679199 383.06446838 C-7.08293087 381.40557583 -7.07864144 379.74668423 -7.0739665 378.08779377 C-7.06245168 373.57664664 -7.05687257 369.06550953 -7.05233169 364.55435073 C-7.04633463 359.67180587 -7.03467968 354.78927402 -7.0236969 349.90673828 C-7.00542273 341.46286427 -6.99054789 333.01898992 -6.97792053 324.57510567 C-6.95956993 312.36581198 -6.93490892 300.15653707 -6.90854663 287.94725835 C-6.86584218 268.1335461 -6.82670084 248.31982872 -6.79052734 228.50610352 C-6.78836454 227.32215856 -6.78620174 226.1382136 -6.7839734 224.91839152 C-6.76423996 214.09855891 -6.7447394 203.27872589 -6.72525787 192.45889282 C-6.71224943 185.23830148 -6.69917509 178.01771025 -6.68603516 170.79711914 C-6.68387629 169.61007688 -6.68171742 168.42303463 -6.67949313 167.20002139 C-6.6434341 147.43897548 -6.60349433 127.67793929 -6.56073236 107.91690677 C-6.53454583 95.72879982 -6.51189437 83.54069585 -6.49374878 71.35257422 C-6.48111867 63.01802102 -6.46500672 54.68347937 -6.44609964 46.34893806 C-6.4353059 41.53464408 -6.42620024 36.72036136 -6.42140388 31.90605736 C-6.41699596 27.50693794 -6.40808404 23.10785246 -6.39546067 18.70874917 C-6.39170096 17.11030006 -6.38966249 15.51184588 -6.38944048 13.91339237 C-6.38890539 11.75524788 -6.38234288 9.59720715 -6.37415314 7.43908024 C-6.37203717 6.23606583 -6.3699212 5.03305142 -6.36774111 3.79358202 C-6.14152449 -0.86178765 -4.16118753 0.00334541 0 0 Z " fill="#ffffff" transform="translate(436.23828125,38.87060546875)"/>
    <path d="M0 0 C0.84728668 0.00182281 1.69457336 0.00364563 2.5675354 0.00552368 C23.98379031 0.08270436 44.39906581 2.28722119 65 8.3125 C65.33056396 8.40644043 65.33056396 8.40644043 67.00341797 8.88183594 C84.05674295 13.80182324 99.70429932 21.87127151 114 32.3125 C114.86496094 32.93382812 115.72992187 33.55515625 116.62109375 34.1953125 C152.69149699 61.55906668 169.5870193 103.33517011 175.8125 147 C177.07108997 160.04959077 177 173.20235629 177 186.3125 C158.19 186.3125 139.38 186.3125 120 186.3125 C119.731875 181.548125 119.46375 176.78375 119.1875 171.875 C117.10119057 138.38104069 109.51722389 104.31135099 83.34277344 80.9831543 C68.44947463 68.20083781 51.05926491 61.18555147 32 57.3125 C31.17733643 57.13444824 30.35467285 56.95639648 29.50708008 56.77294922 C20.0555704 54.93631827 10.65375646 54.91489042 1.0625 54.9375 C0.62988861 54.93777191 0.62988861 54.93777191 -1.55938721 54.93914795 C-14.72010789 54.97720495 -27.29868725 55.5603586 -40 59.3125 C-40.7425 59.52680664 -41.485 59.74111328 -42.25 59.96191406 C-57.56191714 64.52757686 -71.15132543 71.50710495 -83 82.3125 C-83.77859375 82.99828125 -84.5571875 83.6840625 -85.359375 84.390625 C-91.93077919 90.5088289 -96.52103294 97.60604197 -101 105.3125 C-101.556875 106.26898438 -102.11375 107.22546875 -102.6875 108.2109375 C-115.9906035 132.94639558 -117.60669025 161.45275201 -117.54589844 188.93579102 C-117.55465877 191.59956511 -117.56498205 194.2632916 -117.57722473 196.92704773 C-117.60027656 202.604276 -117.60929703 208.28137751 -117.60811615 213.95865059 C-117.60643024 222.16647538 -117.62694888 230.37413366 -117.65247145 238.58191358 C-117.6933199 251.90624481 -117.71680572 265.23054559 -117.72900391 278.55493164 C-117.74087433 291.47976599 -117.76115121 304.40454325 -117.79248047 317.3293457 C-117.79441657 318.12926642 -117.79635267 318.92918714 -117.79834744 319.75334788 C-117.80811366 323.7672816 -117.81804247 327.7812149 -117.82805204 331.79514802 C-117.91056495 364.9675894 -117.96147942 398.13997112 -118 431.3125 C-137.14 431.3125 -156.28 431.3125 -176 431.3125 C-176.06632179 397.23126173 -176.1216424 363.15008685 -176.15319599 329.06880332 C-176.15694744 325.03154585 -176.16083047 320.99428852 -176.16479492 316.95703125 C-176.16558185 316.15339472 -176.16636878 315.34975819 -176.16717956 314.52176903 C-176.18018044 301.56422691 -176.20380445 288.60672532 -176.23145839 275.64920713 C-176.25966152 262.32171786 -176.2762075 248.9942496 -176.28226548 235.66673172 C-176.28635128 227.46425903 -176.29918369 219.26190099 -176.3237494 211.05946366 C-176.33979141 205.4101376 -176.3443594 199.7608695 -176.34050413 194.11152239 C-176.33861075 190.86778686 -176.34291809 187.62428712 -176.35761642 184.38057899 C-176.57798786 133.17388161 -165.55830514 83.9138381 -129 46.3125 C-128.47736572 45.75997559 -127.95473145 45.20745117 -127.41625977 44.63818359 C-123.07284078 40.13744392 -118.41023372 36.42446208 -113.3125 32.8125 C-112.51577881 32.24571533 -111.71905762 31.67893066 -110.89819336 31.0949707 C-78.40018106 8.20140788 -39.27351108 -0.17654386 0 0 Z " fill="#ffffff" transform="translate(878,211.6875)"/>
    <path d="M0 0 C0.95003906 0.16628906 1.90007812 0.33257812 2.87890625 0.50390625 C37.37530622 6.7717582 71.54535461 20.40986281 99.03613281 42.42993164 C100.45788834 43.56659373 101.89106582 44.68901749 103.33105469 45.80249023 C109.62960924 50.71916893 115.37113298 56.02096161 121 61.6875 C121.87575684 62.56817139 122.75151367 63.44884277 123.65380859 64.35620117 C130.05867166 70.87746202 135.7931456 77.47052682 141 85 C141.78460521 86.08243089 142.56977934 87.16444958 143.35546875 88.24609375 C170.50897206 126.44785185 182.25538762 172.57257727 182.1875 218.9375 C182.18656342 219.76180511 182.18562683 220.58611023 182.18466187 221.43539429 C182.15440632 233.71601699 182.00424492 245.85517098 180 258 C179.8546582 258.89267578 179.70931641 259.78535156 179.55957031 260.70507812 C174.49362973 290.45357549 164.02078327 319.9324262 147 345 C146.63616211 345.54350098 146.27232422 346.08700195 145.89746094 346.64697266 C133.26602157 365.41261483 117.8539885 382.18048539 99.71630859 395.70605469 C98.12869406 396.90297603 96.57249122 398.14125866 95.01953125 399.3828125 C77.57010169 412.78503596 56.04970471 422.85596562 35 429 C34.11795898 429.26603027 33.23591797 429.53206055 32.32714844 429.80615234 C19.69203368 433.59134611 7.09489596 436.4007354 -6 438 C-6.69649658 438.0942627 -7.39299316 438.18852539 -8.1105957 438.28564453 C-30.71180215 441.00528169 -55.71706706 440.45098786 -78 436 C-78.50047852 435.90066162 -78.50047852 435.90066162 -81.03320312 435.39794922 C-108.36691864 429.77710661 -132.7799465 419.34376775 -156 404 C-156.35869171 403.7872921 -156.35869171 403.7872921 -158.17388916 402.71086121 C-160 401 -160 401 -160.51898193 398.47529602 C-160.52786438 397.46935898 -160.53674683 396.46342194 -160.54589844 395.42700195 C-160.56561707 394.28604568 -160.58533569 393.14508942 -160.60565186 391.96955872 C-160.60688049 390.73823715 -160.60810913 389.50691559 -160.609375 388.23828125 C-160.62591125 386.97735153 -160.64244751 385.71642181 -160.65948486 384.4172821 C-160.69987159 381.06830746 -160.72316103 377.72009494 -160.73822021 374.37097168 C-160.75778424 370.95223482 -160.79975482 367.53378126 -160.83984375 364.11523438 C-160.91390843 357.41022517 -160.96544558 350.70532288 -161 344 C-156.85486372 344.84713308 -154.85097252 346.66468853 -151.6875 349.5 C-125.95039664 371.66903209 -88.91271267 384.11830231 -55.15234375 384.16796875 C-54.3373793 384.17129715 -53.52241486 384.17462555 -52.68275452 384.17805481 C-50.96762652 384.18308253 -49.25248888 384.18546443 -47.53735352 384.18530273 C-44.96808923 384.18747415 -42.39926592 384.20563312 -39.83007812 384.22460938 C-26.03460305 384.27287231 -12.59579959 383.31692549 0.8125 379.8125 C1.64450928 379.59746826 2.47651855 379.38243652 3.33374023 379.16088867 C25.08257924 373.34464883 45.29785654 363.99896012 63 350 C63.58088379 349.54399414 64.16176758 349.08798828 64.76025391 348.61816406 C92.05301928 326.92983074 109.60362426 295.92568592 117.8125 262.3125 C118.0074707 261.51875977 118.20244141 260.72501953 118.40332031 259.90722656 C121.55726015 246.12890385 122.38248704 232.38812958 122.3125 218.3125 C122.31034485 217.52663513 122.3081897 216.74077026 122.30596924 215.93109131 C122.10961785 171.1504898 107.26422684 129.63583607 75.5390625 97.5078125 C46.95261323 69.27319645 7.51323614 52.15473168 -32.90625 51.76171875 C-33.74034393 51.7519249 -34.57443787 51.74213104 -35.43380737 51.73204041 C-60.79314821 51.49561608 -84.00627047 53.1780738 -108 62 C-108.3611792 62.13075928 -108.3611792 62.13075928 -110.18896484 62.79248047 C-149.17072285 77.13938397 -178.69057708 106.61807227 -196 144 C-207.43456385 170.63086132 -210.45446102 197.39932641 -210.50611091 226.16438437 C-210.51587254 229.85603645 -210.54230765 233.54758302 -210.56611633 237.23916626 C-210.6107116 244.59184568 -210.63880011 251.94450505 -210.66143972 259.29728127 C-210.68054822 265.3622575 -210.70685405 271.42716775 -210.73754883 277.49209595 C-210.98619573 326.92150482 -211.02326944 376.35105743 -211.01968005 425.78098992 C-211.01953158 427.87814087 -211.01941602 429.97529182 -211.01930594 432.07244277 C-211.01769805 459.90030872 -211.01045319 487.72816227 -210.97764486 515.55601072 C-210.96516876 526.14069917 -210.9554634 536.72538788 -210.9476853 547.31008101 C-210.94193369 554.70502581 -210.93166277 562.09994637 -210.91795713 569.4948805 C-210.91058761 574.00564391 -210.90727624 578.51640333 -210.90514243 583.02717197 C-210.90329163 585.11374734 -210.89969465 587.20032197 -210.89426458 589.2868911 C-210.88712036 592.11064652 -210.88600172 594.9343396 -210.88647461 597.75810242 C-210.88287943 598.58880096 -210.87928425 599.4194995 -210.87558013 600.27537072 C-210.88589947 605.88589947 -210.88589947 605.88589947 -212 607 C-213.77446009 607.09893778 -215.55286251 607.12799092 -217.33007812 607.12939453 C-217.89901794 607.13097061 -217.89901794 607.13097061 -220.77819824 607.13894653 C-222.01670532 607.1369223 -223.2552124 607.13489807 -224.53125 607.1328125 C-225.79263794 607.13376923 -227.05402588 607.13472595 -228.3536377 607.13571167 C-231.02697138 607.13639375 -233.70021437 607.13503529 -236.37353516 607.13037109 C-239.80706691 607.12467381 -243.2405205 607.12795301 -246.67404938 607.13394356 C-249.93895243 607.13841762 -253.20384593 607.13528883 -256.46875 607.1328125 C-257.70725708 607.13483673 -258.94576416 607.13686096 -260.22180176 607.13894653 C-260.79074158 607.13737045 -260.79074158 607.13737045 -263.66992188 607.12939453 C-264.67728394 607.12859894 -265.684646 607.12780334 -266.72253418 607.12698364 C-269 607 -269 607 -270 606 C-270.09972667 603.93220856 -270.12740225 601.86094216 -270.12863445 599.79074764 C-270.13038749 599.13156488 -270.13214053 598.47238212 -270.13394669 597.79322413 C-270.13864493 595.55662267 -270.13613139 593.32008514 -270.13371277 591.08348083 C-270.1355789 589.47455052 -270.1378788 587.86562065 -270.14057809 586.25669152 C-270.14672848 581.81306039 -270.14655868 577.36944798 -270.14538372 572.92581356 C-270.14518049 568.14073001 -270.15069146 563.35565261 -270.15544128 558.5705719 C-270.16376942 549.18124392 -270.16649722 539.79192222 -270.16705366 530.40259086 C-270.16752842 522.7617052 -270.1695812 515.12082161 -270.17275429 507.4799366 C-270.18157183 485.8044334 -270.18617271 464.12893517 -270.18542381 442.45343017 C-270.18538386 441.28342468 -270.1853439 440.11341919 -270.18530273 438.90795898 C-270.18526185 437.73651772 -270.18522097 436.56507645 -270.18517885 435.35813696 C-270.18477353 416.427483 -270.19431148 397.49684903 -270.2084411 378.56620084 C-270.2228431 359.11627844 -270.22970898 339.66636575 -270.22884732 320.21643788 C-270.22851636 309.30233325 -270.23121851 298.38824951 -270.24202538 287.4741497 C-270.25118143 278.16729793 -270.25326459 268.86047647 -270.24651595 259.55362212 C-270.24327444 254.81352201 -270.24310676 250.07347988 -270.2518692 245.33338547 C-270.28511936 226.13472334 -270.20384244 207.10315506 -268 188 C-267.89981548 187.13008167 -267.79963095 186.26016334 -267.69641054 185.36388385 C-262.48174748 141.2307233 -244.32762579 101.88725329 -216 68 C-215.46503906 67.34 -214.93007812 66.68 -214.37890625 66 C-211.28875708 62.24827418 -207.94379845 59.06735771 -204.234375 55.9296875 C-202.66890999 54.57769499 -201.14001599 53.18273043 -199.640625 51.7578125 C-169.85623465 23.50776953 -130.01529817 7.00403455 -90 0 C-89.07832031 -0.16371094 -88.15664062 -0.32742187 -87.20703125 -0.49609375 C-59.01282467 -5.25411188 -28.13132316 -4.9967525 0 0 Z " fill="#ffffff" transform="translate(1815,215)"/>
    <path d="M0 0 C19.14 0 38.28 0 58 0 C58 138.6 58 277.2 58 420 C38.86 420 19.72 420 0 420 C0 281.4 0 142.8 0 0 Z " fill="#ffffff" transform="translate(1258,228)"/>
    <path d="M0 0 C0.66 0 1.32 0 2 0 C3.36938477 1.70556641 3.36938477 1.70556641 4.94140625 4.1015625 C5.52083984 4.97748047 6.10027344 5.85339844 6.69726562 6.75585938 C7.31279297 7.70267578 7.92832031 8.64949219 8.5625 9.625 C9.19220703 10.58470703 9.82191406 11.54441406 10.47070312 12.53320312 C11.73622473 14.46451604 12.99879175 16.39776842 14.25830078 18.33300781 C15.72859317 20.58440592 17.21496156 22.82297319 18.71484375 25.0546875 C27.46923357 38.1817494 33.43072414 49.90856139 32 66 C29.40723073 76.47225831 22.86197062 84.93282251 14 91 C9.90732692 93.33513403 5.62448475 94.28277667 1 95 C1.10828125 94.68998047 1.10828125 94.68998047 1.65625 93.12109375 C7.00382479 76.11283503 2.6277106 62.84185465 -3.15209961 46.62451172 C-7.97130009 31.70760843 -4.38152452 14.63048187 0 0 Z " fill="#ffffff" transform="translate(1291,727)"/>
    <path d="M0 0 C1.33529802 4.00589406 0.34778544 7.21881218 -0.4375 11.25 C-3.20641284 26.77958315 -2.66129117 41.18732944 3.359375 55.96435547 C8.00887529 67.3934632 8.5567279 77.16724851 4.36328125 88.98828125 C3 91 3 91 0.6484375 91.91015625 C-6.16709487 92.14136163 -12.22950861 87.09473948 -17.25 82.9375 C-25.03311624 75.60788817 -28.65932112 66.81357756 -29.1875 56.25 C-28.83176285 35.45913998 -15.12737906 20.30248871 -3.18579102 4.60302734 C-2.07609411 3.10286883 -1.03506266 1.55259399 0 0 Z " fill="#ffffff" transform="translate(1280,730)"/>
    <path d="M0 0 C0.31001953 0.24105469 0.31001953 0.24105469 1.87890625 1.4609375 C2.88953125 2.2446875 3.90015625 3.0284375 4.94140625 3.8359375 C5.26109375 4.1040625 5.26109375 4.1040625 6.87890625 5.4609375 C6.31981745 8.70365256 5.46568845 10.39151174 2.87890625 12.4609375 C2.21890625 12.4609375 1.55890625 12.4609375 0.87890625 12.4609375 C0.21890625 13.7809375 -0.44109375 15.1009375 -1.12109375 16.4609375 C-5.11462924 14.54256479 -8.82111858 12.2259917 -12.5859375 9.8984375 C-21.33714555 4.93627331 -32.00797428 4.29688202 -41.734375 6.66015625 C-46.70219703 8.32693778 -52.03029112 10.37013487 -55.78125 14.12109375 C-56.22339844 14.56324219 -56.66554688 15.00539063 -57.12109375 15.4609375 C-57.78109375 15.4609375 -58.44109375 15.4609375 -59.12109375 15.4609375 C-59.38792969 15.99976563 -59.65476562 16.53859375 -59.9296875 17.09375 C-60.80150803 18.82595735 -61.69223639 20.54868396 -62.59375 22.265625 C-63.11839844 23.27882813 -63.64304687 24.29203125 -64.18359375 25.3359375 C-64.71082031 26.34398437 -65.23804687 27.35203125 -65.78125 28.390625 C-69.98519588 38.02415696 -68.70123604 48.84652313 -65.12109375 58.4609375 C-61.42793247 66.43480845 -54.65569249 73.02394577 -46.640625 76.67578125 C-36.29070945 79.90110377 -24.68329875 80.83375194 -14.625 76.34765625 C-10.4451466 74.13075535 -6.69652358 71.57502155 -3.12109375 68.4609375 C1.17129248 70.11185528 3.75829775 73.19848316 6.87890625 76.4609375 C3.67891088 83.66869406 -3.08018724 87.52868396 -10.12109375 90.4609375 C-17.05774815 93.00880056 -23.43345974 94.01271812 -30.80859375 93.9609375 C-31.76540039 93.95521729 -32.72220703 93.94949707 -33.70800781 93.94360352 C-46.5421292 93.62371983 -57.20567909 89.82926619 -67.12109375 81.4609375 C-67.47429687 81.17476562 -67.47429687 81.17476562 -69.26171875 79.7265625 C-77.68345469 72.20485941 -83.18278163 60.57627073 -84.33837891 49.35009766 C-85.19209099 33.8743703 -82.31771487 20.15214404 -72.0859375 8.0546875 C-53.98624871 -11.09842233 -21.85439042 -15.85751349 0 0 Z " fill="#ffffff" transform="translate(127.12109375,800.5390625)"/>
    <path d="M0 0 C10.68672649 8.55757025 15.94894174 21.14491646 17.8515625 34.4453125 C19.22725702 48.41390305 14.3993486 62.94732534 5.6015625 73.7578125 C-3.60945576 83.47271578 -16.41944193 90.27002866 -29.921875 90.71875 C-46.2246562 91.13755578 -59.23727276 89.32656834 -72.1484375 78.4453125 C-72.78136719 77.92324219 -73.41429687 77.40117188 -74.06640625 76.86328125 C-83.35645114 68.43456503 -88.69372983 56.60682138 -89.4609375 44.2109375 C-90.02480849 29.46233415 -86.81463515 16.50937728 -77.11328125 5.0390625 C-56.36315902 -16.9187388 -23.70194307 -17.15158789 0 0 Z M-62.3984375 10.6328125 C-70.16080597 18.57159844 -74.08029769 28.24825814 -74.3359375 39.2578125 C-74.16960369 50.36891102 -70.44416126 59.05789285 -63.1484375 67.4453125 C-54.06096184 74.99253805 -43.64617732 78.11634983 -31.92041016 77.18041992 C-24.83893083 76.38170071 -18.92283612 74.74616126 -13.1484375 70.4453125 C-12.83777344 70.22939453 -12.83777344 70.22939453 -11.265625 69.13671875 C-4.18319979 63.72525533 -0.14728082 56.01569549 1.8515625 47.4453125 C2.95014849 35.02873593 1.66193196 24.17296454 -6.45703125 14.22265625 C-14.69705871 5.56396689 -23.88713159 1.92257054 -35.72265625 1.4140625 C-45.95196126 1.50737429 -53.98305702 4.9686141 -62.3984375 10.6328125 Z " fill="#ffffff" transform="translate(261.1484375,803.5546875)"/>
    <path d="M0 0 C23.43 0 46.86 0 71 0 C71 4.29 71 8.58 71 13 C52.52 13 34.04 13 15 13 C15 24.22 15 35.44 15 47 C31.5 47 48 47 65 47 C65 51.29 65 55.58 65 60 C48.5 60 32 60 15 60 C15 73.2 15 86.4 15 100 C10.05 100 5.1 100 0 100 C0 67 0 34 0 0 Z " fill="#ffffff" transform="translate(328,793)"/>
    <path d="M0 0 C23.43 0 46.86 0 71 0 C71 4.29 71 8.58 71 13 C61.925 13.165 61.925 13.165 16 14 C16 24.56 16 35.12 16 46 C24.085 46.165 24.085 46.165 65 47 C66.25069801 49.50139602 66.13302467 51.27392691 66.125 54.0625 C66.12628906 54.51173828 66.12628906 54.51173828 66.1328125 56.78515625 C66 59 66 59 65 60 C63.46617321 60.1225355 61.92689481 60.17777938 60.38842773 60.20532227 C59.40748642 60.22526749 58.4265451 60.24521271 57.4158783 60.26576233 C56.3492244 60.28247482 55.2825705 60.29918732 54.18359375 60.31640625 C53.0974025 60.33718735 52.01121124 60.35796844 50.8921051 60.37937927 C47.40730373 60.44499442 43.92242432 60.50381511 40.4375 60.5625 C38.08137199 60.60567385 35.72525201 60.64928776 33.36914062 60.69335938 C27.57950604 60.80151963 21.78981602 60.90050408 16 61 C15.67 73.87 15.34 86.74 15 100 C10.05 100 5.1 100 0 100 C0 67 0 34 0 0 Z " fill="#ffffff" transform="translate(446,793)"/>
    <path d="M0 0 C23.43 0 46.86 0 71 0 C71 4.29 71 8.58 71 13 C52.52 13 34.04 13 15 13 C15 22.9 15 32.8 15 43 C31.5 43 48 43 65 43 C65 47.29 65 51.58 65 56 C48.5 56 32 56 15 56 C15 66.23 15 76.46 15 87 C34.14 87 53.28 87 73 87 C73 91.29 73 95.58 73 100 C48.91 100 24.82 100 0 100 C0 67 0 34 0 0 Z " fill="#ffffff" transform="translate(565,793)"/>
    <path d="M0 0 C23.76 0 47.52 0 72 0 C72 4.29 72 8.58 72 13 C53.52 13 35.04 13 16 13 C16 22.9 16 32.8 16 43 C32.5 43 49 43 66 43 C66 46.96 66 50.92 66 55 C65 56 65 56 63.01951599 56.12025452 C62.15125687 56.11803391 61.28299774 56.11581329 60.38842773 56.11352539 C59.40748642 56.11344986 58.4265451 56.11337433 57.4158783 56.11329651 C56.3492244 56.10813522 55.2825705 56.10297394 54.18359375 56.09765625 C53.64049812 56.09694878 53.64049812 56.09694878 50.8921051 56.09336853 C47.40720925 56.08775048 43.92237658 56.07519492 40.4375 56.0625 C38.08138113 56.05748733 35.72526126 56.05292402 33.36914062 56.04882812 C27.57938289 56.03862411 21.78976255 56.01905224 16 56 C16 66.23 16 76.46 16 87 C35.14 87 54.28 87 74 87 C74 91.29 74 95.58 74 100 C49.58 100 25.16 100 0 100 C0 67 0 34 0 0 Z " fill="#ffffff" transform="translate(688,793)"/>
    <path d="M0 0 C2.46858216 1.90322506 4.71745762 3.86962711 7 6 C6.06409496 7.1055189 5.12620142 8.20935453 4.1875 9.3125 C3.66542969 9.92738281 3.14335938 10.54226563 2.60546875 11.17578125 C1.12827531 12.85424679 -0.40039131 14.43882034 -2 16 C-5.06919299 14.53579784 -7.88354867 12.82576518 -10.75 11 C-20.41592747 5.24814186 -30.85209418 4.60009135 -41.91015625 6.5 C-52.23106584 9.30754264 -60.39167755 15.42211752 -65.859375 24.64453125 C-70.91894716 35.0928943 -70.84048618 45.67990474 -67.5 56.625 C-63.46651767 66.60786877 -56.36844349 72.47214213 -46.796875 76.94140625 C-36.44395331 80.85990035 -24.12960447 80.22531669 -14.0390625 75.97265625 C-12.68669528 75.32756154 -11.34016246 74.67008123 -10 74 C-9.67 63.11 -9.34 52.22 -9 41 C-4.05 41 0.9 41 6 41 C6.24815034 46.56811189 6.42906728 52.13297791 6.54931641 57.70532227 C6.59945527 59.59814529 6.66759108 61.49058382 6.75439453 63.38208008 C7.45589686 79.06684687 7.45589686 79.06684687 3.92285156 83.75805664 C1.31887435 85.6226539 -1.01624036 86.85339535 -4 88 C-4.9593042 88.41161377 -5.9186084 88.82322754 -6.90698242 89.24731445 C-22.78831949 95.77120802 -38.91118481 95.39624857 -55 90 C-68.41105128 84.19180747 -77.69654825 74.80898628 -83.22265625 61.1953125 C-87.93173794 47.89629789 -87.36246289 32.92170764 -81.67578125 19.98828125 C-76.52325864 10.07542278 -70.43515479 3.93024619 -61 -2 C-60.36320313 -2.40347656 -59.72640625 -2.80695312 -59.0703125 -3.22265625 C-41.38479808 -13.20396589 -16.50782387 -11.10284283 0 0 Z " fill="#ffffff" transform="translate(1056,971)"/>
    <path d="M0 0 C9.65635364 8.064647 16.30837526 19.75955776 17.8125 32.3125 C18.78582874 47.68084854 15.80462824 61.78865065 6.0625 74.125 C-3.90099444 84.81880294 -17.25528549 90.26593275 -31.57421875 91.63671875 C-46.81772676 92.14078002 -60.6654933 88.02844283 -72.3125 78.125 C-82.48978029 68.56404569 -88.44276255 57.34034298 -89.390625 43.3046875 C-89.625935 27.65657251 -85.32929443 14.96249035 -74.50390625 3.56640625 C-54.11797829 -16.26947981 -22.47051404 -16.78520326 0 0 Z M-65.1875 14.3125 C-71.90043136 23.33735378 -74.82260545 32.86794982 -73.9765625 44.1171875 C-72.60186285 53.27320593 -68.86197074 61.78635083 -62.1875 68.3125 C-51.33096899 76.07806788 -41.53048984 78.52424727 -28.1875 77.3125 C-17.91175747 75.27913752 -9.8625155 70.47551223 -3.8125 61.875 C2.18505817 51.98982795 4.24582104 41.59986951 1.75 30.125 C-1.13996189 20.22589976 -6.26277818 12.44543674 -15.1640625 7.1328125 C-31.9040499 -1.72192987 -51.93780562 0.54413431 -65.1875 14.3125 Z " fill="#ffffff" transform="translate(1197.1875,973.6875)"/>
    <path d="M0 0 C12.72806253 10.49228944 18.48839168 22.88807164 20.34765625 39.015625 C20.79973324 52.46000167 16.44645016 65.13424173 7.6875 75.25 C-3.7631254 87.34519703 -16.62590292 92.92888868 -33.375 93.4375 C-48.10217349 93.08829898 -62.28389807 88.1539145 -73.15625 78.0390625 C-84.35375196 65.65538449 -87.88131565 51.40702833 -87.18359375 35.1640625 C-86.05555044 21.86755204 -78.77059955 9.69831252 -68.8203125 1.12109375 C-48.91493962 -13.98741058 -20.41978878 -13.94522161 0 0 Z M-63.078125 16.17578125 C-70.33071295 24.99773172 -72.72990124 34.69588851 -72 46 C-70.65925434 55.97922083 -66.43574218 64.1655703 -59 71 C-56.13240547 73.02356762 -53.19795479 74.56418356 -50 76 C-49.66226562 76.15984375 -49.66226562 76.15984375 -47.953125 76.96875 C-39.1905466 80.5264886 -28.79653997 80.30775868 -19.9375 77.25 C-10.62773962 73.30332167 -3.1448182 67.33709958 1.17578125 58.08984375 C1.44777344 57.40019531 1.71976563 56.71054688 2 56 C2.35707031 55.09765625 2.71414063 54.1953125 3.08203125 53.265625 C5.59366821 44.3306101 5.12659632 33.03629888 1.4609375 24.49609375 C-4.0904485 15.01123905 -12.36660829 7.35723102 -23.0625 4.50390625 C-38.44913983 1.86444277 -52.13713783 4.72064995 -63.078125 16.17578125 Z " fill="#ffffff" transform="translate(1343,972)"/>
    <path d="M0 0 C-0.45261358 1.43931117 -0.91232979 2.87638999 -1.375 4.3125 C-1.63023438 5.11300781 -1.88546875 5.91351562 -2.1484375 6.73828125 C-3 9 -3 9 -5 12 C-5.70253906 11.71253906 -6.40507813 11.42507813 -7.12890625 11.12890625 C-10.04279863 9.98317169 -12.97182527 8.94132555 -15.9375 7.9375 C-16.93652344 7.59589844 -17.93554688 7.25429688 -18.96484375 6.90234375 C-29.00341459 3.91790377 -39.24459029 4.00986463 -49 8 C-51.71645882 9.90691811 -53.50365142 12.00730284 -55 15 C-55.2652419 19.04493892 -55.38351339 21.94533817 -54 25.75 C-47.34209693 33.24014095 -35.12209826 34.51844389 -25.88476562 36.82421875 C-15.58488026 39.51861294 -5.06869506 42.70731069 1 52 C4.53323298 58.091781 4.94682136 64.04484495 4 71 C1.16455625 79.42465181 -3.98357836 85.35639129 -11.58984375 89.86328125 C-25.48221718 96.41543792 -42.63389434 95.32786447 -57 91 C-62.57828701 88.76210315 -68.72769856 86.27230144 -73 82 C-72.75704021 76.77636459 -70.68742135 73.33455057 -68 69 C-67.41734375 69.38671875 -66.8346875 69.7734375 -66.234375 70.171875 C-53.18478063 78.46123998 -38.7604067 82.12177139 -23.4140625 78.7265625 C-18.89146303 77.36539178 -15.1529266 75.854708 -12.5625 71.6875 C-11.50519376 66.63592576 -11.19988098 63.40710585 -13.8125 58.8125 C-20.64089682 51.58040131 -34.50630221 50.14365702 -43.77148438 47.8203125 C-53.88251073 45.12902268 -63.08493271 40.99669325 -69 32 C-72.0856573 25.96894256 -71.85315063 18.23707582 -70.53515625 11.69140625 C-68.00377638 4.00739517 -63.31064091 -0.56918203 -56.25 -4.3125 C-39.42295392 -12.05500586 -15.01282962 -12.00342414 0 0 Z " fill="#ffffff" transform="translate(1622,971)"/>
    <path d="M0 0 C3.86092983 3.68318881 6.69974127 7.61057263 7.37109375 12.953125 C7.57271336 22.96294552 5.30633895 27.64648964 -1.4375 34.75 C-9.03589817 42 -9.03589817 42 -13 42 C-6.17373008 50.15822503 1.43799837 57.53279684 9 65 C11.75361142 62.24638858 12.47414027 59.00154636 13.625 55.375 C13.85445313 54.66859375 14.08390625 53.9621875 14.3203125 53.234375 C14.88562421 51.49133055 15.44352544 49.74588584 16 48 C17.6286551 48.42369072 19.25287378 48.8644623 20.875 49.3125 C21.77992187 49.55613281 22.68484375 49.79976562 23.6171875 50.05078125 C26 51 26 51 28 54 C27.39467509 56.54057548 26.70649198 58.81357385 25.8125 61.25 C25.70131836 61.57162109 25.70131836 61.57162109 25.13867188 63.19921875 C23.60410915 67.56986446 21.83409734 71.72043953 20 76 C23.96 79.96 27.92 83.92 32 88 C29.98127747 92.03744506 27.91899872 94.62010675 25 98 C21.31930113 96.46356148 19.01224796 94.21849055 16.25 91.375 C15.45078125 90.55773438 14.6515625 89.74046875 13.828125 88.8984375 C13.22484375 88.27195312 12.6215625 87.64546875 12 87 C8.48106474 88.29710312 5.55432467 89.8648907 2.4375 91.9375 C-9.02840139 98.86446258 -22.37567712 99.63660895 -35.3125 96.875 C-43.52409948 94.54290575 -50.25220648 90.12169028 -55 83 C-58.13435645 76.64558205 -58.62565957 70.88121654 -57 64 C-53.08680201 52.8251975 -44.72803668 47.06034648 -35 41 C-35.38671875 40.5153125 -35.7734375 40.030625 -36.171875 39.53125 C-43.2281927 30.44886088 -46.45099996 23.84489764 -45 12 C-43.31011201 6.07589829 -40.08409788 2.48908678 -35 -1 C-24.60166376 -6.3917299 -9.81914727 -7.22197143 0 0 Z M-29.375 10.125 C-31.44446809 13.78636662 -32.56325706 16.82612079 -32 21 C-29.79001996 25.9322071 -26.96591323 30.30883377 -23 34 C-16.57345696 32.51695161 -10.55730995 28.61308011 -6.72265625 23.1953125 C-4.81663531 19.24273452 -4.62649919 16.12050244 -6 12 C-8.76338728 8.31548363 -11.58347748 7.10413063 -16 6 C-21.28638087 6 -25.34459009 6.51884376 -29.375 10.125 Z M-37.9609375 57.953125 C-41.98113682 62.62047836 -43.36721183 65.46272578 -43.27734375 71.68359375 C-42.84295811 75.31163158 -41.39083691 77.29457928 -39 80 C-31.24419472 85.97843324 -23.43008812 85.53746616 -14 85 C-7.62176145 83.84445607 -3.04166613 80.96897121 2 77 C-2.80809586 71.17371914 -8.01804955 65.82776498 -13.36987305 60.49975586 C-14.83046259 59.04460429 -16.28553203 57.58408143 -17.74023438 56.12304688 C-18.65740234 55.20716797 -19.57457031 54.29128906 -20.51953125 53.34765625 C-21.35589111 52.51242432 -22.19225098 51.67719238 -23.05395508 50.81665039 C-27.49752624 46.66853685 -34.47923313 54.48529196 -37.9609375 57.953125 Z " fill="#ffffff" transform="translate(100,967)"/>
    <path d="M0 0 C1.00227127 -0.00960754 2.00454254 -0.01921509 3.03718567 -0.02911377 C4.13181625 -0.03336365 5.22644684 -0.03761353 6.35424805 -0.04199219 C7.47856735 -0.04769226 8.60288666 -0.05339233 9.76127625 -0.05926514 C12.15301568 -0.06873922 14.54476832 -0.07525861 16.93652344 -0.07910156 C20.56233379 -0.08872484 24.1875573 -0.1196911 27.81323242 -0.15136719 C30.13940094 -0.15790534 32.46557351 -0.16315261 34.79174805 -0.16699219 C35.32793007 -0.17316559 35.32793007 -0.17316559 38.04133606 -0.20440674 C48.62235658 -0.17378343 60.74704524 1.44106571 69.01831055 8.65722656 C73.93407729 13.86144906 75.92430539 19.62229305 76.6784668 26.66113281 C75.85177743 34.3769002 73.18711862 40.17865933 68.3034668 46.16113281 C67.3134668 46.82113281 66.3234668 47.48113281 65.3034668 48.16113281 C65.97893555 48.59683594 66.6544043 49.03253906 67.3503418 49.48144531 C73.69588706 53.71792206 77.71057535 57.09925963 80.5534668 64.34863281 C82.26847645 73.06659855 82.01374977 80.45604029 77.3034668 88.16113281 C74.57057771 92.04408802 72.09869721 94.20642325 67.8659668 96.34863281 C67.40254883 96.59291016 67.40254883 96.59291016 65.05737305 97.82910156 C55.55250288 101.20179743 45.46751162 101.45752797 35.4753418 101.39160156 C34.31971741 101.39114334 33.16409302 101.39068512 31.97344971 101.39021301 C29.56017006 101.38721895 27.14689184 101.37941954 24.73364258 101.36694336 C21.02117173 101.34847213 17.30894795 101.34643554 13.59643555 101.34667969 C11.24356879 101.34177147 8.89070372 101.33594621 6.5378418 101.32910156 C5.98115814 101.32854515 5.98115814 101.32854515 3.16400146 101.32572937 C2.6544693 101.32253944 2.6544693 101.32253944 0.07592773 101.30639648 C-0.8241803 101.30258469 -1.72428833 101.29877289 -2.65167236 101.29484558 C-4.6965332 101.16113281 -4.6965332 101.16113281 -5.6965332 100.16113281 C-5.79718948 97.09195093 -5.83267764 94.04523005 -5.82592773 90.97558594 C-5.82768005 90.01144272 -5.82943237 89.0472995 -5.83123779 88.05393982 C-5.83565813 84.85006946 -5.83271768 81.64625379 -5.8293457 78.44238281 C-5.83001869 76.22660308 -5.83098867 74.01082342 -5.83224487 71.79504395 C-5.83372209 67.14444274 -5.83156652 62.4938607 -5.8269043 57.84326172 C-5.821207 51.86730677 -5.82448588 45.89139672 -5.83047676 39.91544342 C-5.83408172 35.33798888 -5.83294409 30.76054507 -5.83034897 26.18309021 C-5.82967952 23.97895808 -5.83050874 21.77482498 -5.83282852 19.57069397 C-5.83535398 16.49599609 -5.83151595 13.42137203 -5.82592773 10.34667969 C-5.82795197 9.42612289 -5.8299762 8.5055661 -5.83206177 7.55711365 C-5.80662933 0.04478146 -5.80662933 0.04478146 0 0 Z M10.3034668 13.16113281 C10.3034668 23.39113281 10.3034668 33.62113281 10.3034668 44.16113281 C15.2122168 44.20238281 20.1209668 44.24363281 25.1784668 44.28613281 C26.70584473 44.30434082 28.23322266 44.32254883 29.80688477 44.34130859 C49.96821467 44.42293341 49.96821467 44.42293341 57.3034668 38.16113281 C60.68856031 34.32469349 60.81979577 30.52680973 60.65112305 25.59863281 C60.12537174 21.91246638 58.81532288 19.87129333 56.3034668 17.16113281 C50.20507887 13.4766901 45.03301166 13.01639316 38.0378418 13.06347656 C37.24444397 13.06489151 36.45104614 13.06630646 35.63360596 13.06776428 C33.10685408 13.07334866 30.58019176 13.08589827 28.0534668 13.09863281 C26.33732225 13.10364983 24.6211763 13.10821239 22.9050293 13.11230469 C18.70444644 13.12246084 14.50405653 13.14203922 10.3034668 13.16113281 Z M10.3034668 56.16113281 C10.3034668 66.72113281 10.3034668 77.28113281 10.3034668 88.16113281 C15.96022591 88.2534462 21.61432532 88.33293566 27.27124023 88.38085938 C29.19157819 88.40085618 31.11185618 88.42806287 33.03198242 88.46289062 C54.35226597 88.83965239 54.35226597 88.83965239 61.3034668 84.16113281 C64.98772742 80.11743213 66.11263456 76.59985162 66.3034668 71.16113281 C65.35003884 65.63125063 63.81392214 62.54397432 59.3034668 59.16113281 C50.04848289 54.62285167 39.18364246 55.83021207 29.1784668 55.97363281 C27.34514444 55.98870521 25.51181012 56.0023891 23.6784668 56.01464844 C19.21959211 56.04488493 14.76240318 56.10363936 10.3034668 56.16113281 Z " fill="#ffffff" transform="translate(248.696533203125,962.8388671875)"/>
    <path d="M0 0 C3.58072917 0.06510417 7.16145833 0.13020833 10.7421875 0.1953125 C16.14607024 10.84330483 21.30492938 21.57363668 26.2421875 32.4453125 C26.9267894 33.94728832 27.6114423 35.4492409 28.29614258 36.95117188 C34.08396036 49.66734578 39.77178334 62.42794441 45.42578125 75.20410156 C45.58407913 75.56170563 45.58407913 75.56170563 46.38516235 77.37139893 C46.99641199 78.75318567 47.60693022 80.13529623 48.21664429 81.51776123 C50.37587651 86.4040902 52.61152234 91.25139986 54.90551758 96.07617188 C55.7421875 98.1953125 55.7421875 98.1953125 55.7421875 101.1953125 C50.7921875 101.1953125 45.8421875 101.1953125 40.7421875 101.1953125 C36.67223888 93.24471521 33.2026324 85.50038025 29.7421875 77.1953125 C12.5821875 77.1953125 -4.5778125 77.1953125 -22.2578125 77.1953125 C-25.8878125 85.1153125 -29.5178125 93.0353125 -33.2578125 101.1953125 C-38.2078125 101.1953125 -43.1578125 101.1953125 -48.2578125 101.1953125 C-48.5878125 100.5353125 -48.9178125 99.8753125 -49.2578125 99.1953125 C-48.17209517 96.49863632 -47.01603335 93.91491423 -45.76171875 91.296875 C-45.38187332 90.48714737 -45.00202789 89.67741974 -44.610672 88.84315491 C-43.78603256 87.08662845 -42.95795695 85.33171209 -42.12689209 83.57821655 C-39.91791508 78.9155487 -37.73513777 74.24064624 -35.55078125 69.56640625 C-35.10510803 68.61411636 -34.65943481 67.66182648 -34.20025635 66.68067932 C-29.89653468 57.46504614 -25.74300591 48.18604808 -21.6328125 38.8828125 C-20.97132268 37.38832427 -20.30978368 35.89385781 -19.64819336 34.39941406 C-17.84891228 30.33247683 -16.05311128 26.26400882 -14.2578125 22.1953125 C-12.47244694 18.15080799 -10.68135702 14.1089716 -8.8828125 10.0703125 C-8.53138184 9.27069092 -8.17995117 8.47106934 -7.81787109 7.6472168 C-4.52533706 0.27130318 -4.52533706 0.27130318 0 0 Z M2.7421875 17.1953125 C0.21155309 22.92281686 -2.31485569 28.65217145 -4.83837891 34.3828125 C-5.69678858 36.33082931 -6.55615351 38.27842548 -7.41650391 40.22558594 C-8.65520471 43.02948902 -9.89042692 45.83490245 -11.125 48.640625 C-11.50840546 49.50648224 -11.89181091 50.37233948 -12.28683472 51.26443481 C-12.64705719 52.08483246 -13.00727966 52.9052301 -13.37841797 53.75048828 C-13.69374481 54.46552521 -14.00907166 55.18056213 -14.33395386 55.91726685 C-15.43375576 58.62915244 -16.33239974 61.41907423 -17.2578125 64.1953125 C-3.7278125 64.1953125 9.8021875 64.1953125 23.7421875 64.1953125 C22.87665637 59.86765685 21.80978006 56.78812888 20.01171875 52.8203125 C19.73881516 52.21453369 19.46591156 51.60875488 19.18473816 50.98461914 C18.3128982 49.05261671 17.433882 47.12397741 16.5546875 45.1953125 C15.98325918 43.93119958 15.4122918 42.66687819 14.84179688 41.40234375 C11.18639299 33.31285614 7.47331446 25.2501322 3.7421875 17.1953125 C3.4121875 17.1953125 3.0821875 17.1953125 2.7421875 17.1953125 Z " fill="#ffffff" transform="translate(413.2578125,962.8046875)"/>
    <path d="M0 0 C4.95 0 9.9 0 15 0 C15.33 17.49 15.66 34.98 16 53 C20.970625 48.05 25.94125 43.1 31.0625 38 C32.61718994 36.45441406 34.17187988 34.90882813 35.77368164 33.31640625 C37.02770757 32.06530567 38.28154462 30.81401571 39.53515625 29.5625 C40.16869019 28.93408203 40.80222412 28.30566406 41.45495605 27.65820312 C47.01747723 22.09675146 52.17396306 16.2466704 57.1484375 10.15625 C66.01425927 -0.14210048 66.01425927 -0.14210048 72.6875 -0.8984375 C76.85751703 -1.01913264 80.88069675 -0.62836829 85 0 C83.38970584 4.09893059 80.42181788 6.76203985 77.3125 9.75 C73.89660896 13.09311573 70.53346747 16.4152993 67.4375 20.0625 C64.61932524 23.37678376 61.59469758 26.44637788 58.5 29.5 C53.26724016 34.68237563 48.09579491 39.85630764 44 46 C64.15677326 70.689381 64.15677326 70.689381 72.875 80.9375 C85.78283382 96.13547121 85.78283382 96.13547121 88 101 C73.30759646 103.0569365 73.30759646 103.0569365 68.17919922 99.86767578 C64.72205225 96.69729676 62.10423674 92.8681571 59.45068359 89.02294922 C57.03113436 85.64893627 54.25649433 82.59942699 51.5 79.5 C50.42130661 78.26074023 49.34448322 77.01985028 48.26953125 75.77734375 C48.00245361 75.46917725 48.00245361 75.46917725 46.65087891 73.90966797 C42.08094299 68.62335641 37.5415232 63.31071812 33 58 C32.5570459 58.39034424 32.1140918 58.78068848 31.65771484 59.18286133 C28.89863911 61.58586766 26.24755488 63.84076015 23.1640625 65.82421875 C18.67876751 69.11573522 16.41628497 71.61688126 15.45898438 77.09716797 C14.74567145 85.06286031 14.80899005 93.01128994 15 101 C10.05 101 5.1 101 0 101 C0 67.67 0 34.34 0 0 Z " fill="#ffffff" transform="translate(512,963)"/>
    <path d="M0 0 C1.24132187 0.00222061 2.48264374 0.00444122 3.76158142 0.00672913 C4.44447739 0.0065831 5.12737335 0.00643707 5.83096313 0.00628662 C8.09815092 0.00698575 10.36525752 0.01477811 12.63243103 0.02259827 C14.20041865 0.02446245 15.76840685 0.02588635 17.33639526 0.02688599 C21.47103981 0.03071117 25.60564944 0.04054146 29.74028015 0.05158997 C33.95627876 0.06180407 38.172283 0.0663836 42.38829041 0.07142639 C50.66630304 0.08216373 58.94428055 0.09976053 67.22227478 0.12025452 C67.22227478 4.74025452 67.22227478 9.36025452 67.22227478 14.12025452 C49.07227478 14.12025452 30.92227478 14.12025452 12.22227478 14.12025452 C12.22227478 23.69025452 12.22227478 33.26025452 12.22227478 43.12025452 C28.39227478 43.12025452 44.56227478 43.12025452 61.22227478 43.12025452 C62.47297279 45.62165054 62.35529945 47.39418142 62.34727478 50.18275452 C62.34856384 50.6319928 62.34856384 50.6319928 62.35508728 52.90541077 C62.22227478 55.12025452 62.22227478 55.12025452 61.22227478 56.12025452 C59.68744508 56.21344901 58.14835396 56.23771252 56.61070251 56.23377991 C55.6297612 56.23370438 54.64881989 56.23362885 53.63815308 56.23355103 C52.57149918 56.22838974 51.50484528 56.22322845 50.40586853 56.21791077 C49.8627729 56.21720329 49.8627729 56.21720329 47.11437988 56.21362305 C43.62948403 56.208005 40.14465136 56.19544944 36.65977478 56.18275452 C34.30365591 56.17774184 31.94753604 56.17317853 29.59141541 56.16908264 C23.80165767 56.15887863 18.01203733 56.13930675 12.22227478 56.12025452 C12.22227478 66.35025452 12.22227478 76.58025452 12.22227478 87.12025452 C31.03227478 87.12025452 49.84227478 87.12025452 69.22227478 87.12025452 C69.22227478 91.74025452 69.22227478 96.36025452 69.22227478 101.12025452 C45.13227478 101.12025452 21.04227478 101.12025452 -3.77772522 101.12025452 C-3.81783403 76.20377085 -3.81783403 76.20377085 -3.82655334 65.62220764 C-3.83254234 58.38823213 -3.83964415 51.15426921 -3.85316467 43.92030334 C-3.86399167 38.09131164 -3.87000165 32.26233343 -3.87260246 26.43333244 C-3.87445705 24.20407842 -3.8780783 21.97482517 -3.88345528 19.74557686 C-3.89066321 16.63485718 -3.89171627 13.52419403 -3.89125061 10.41346741 C-3.89484589 9.48198883 -3.89844116 8.55051025 -3.90214539 7.59080505 C-3.89003881 0.16840929 -3.89003881 0.16840929 0 0 Z " fill="#ffffff" transform="translate(645.7777252197266,962.8797454833984)"/>
    <path d="M0 0 C67.14408397 0 67.14408397 0 83.99609375 15.796875 C92.74730541 25.41809016 97.66345615 39.31750973 97.31640625 52.3203125 C96.17377989 61.99737032 93.7597101 72.02023991 88 80 C87.73509766 80.37253906 87.73509766 80.37253906 86.39453125 82.2578125 C76.7581323 94.38036129 62.79818565 98.88597348 48 101 C32.16 101 16.32 101 0 101 C0 67.67 0 34.34 0 0 Z M15 14 C15 38.09 15 62.18 15 87 C60.47368421 87 60.47368421 87 71 77 C78.89900198 68.92147525 81.26519537 59.8543784 81.24658203 48.85522461 C81.05735789 38.11481054 77.68645665 31.0209541 70.40625 23.3125 C55.67081099 9.41114244 33.20175635 14 15 14 Z " fill="#ffffff" transform="translate(766,963)"/>
    <path d="M0 0 C67.24093511 0 67.24093511 0 83.9296875 15.671875 C92.7404264 25.57980026 96.59115185 37.30128414 96.4375 50.375 C96.42920166 51.2932959 96.42090332 52.2115918 96.41235352 53.15771484 C96.081918 66.47156148 91.15693446 78.40519042 81.4375 87.75 C58.28405731 106.27275416 28.06656594 101 0 101 C0 67.67 0 34.34 0 0 Z M15 14 C15 38.09 15 62.18 15 87 C59.60305851 87 59.60305851 87 70.06640625 77.9765625 C77.89007477 69.97903468 81.06272014 61.1366405 81.4375 50.0625 C81.15863491 38.89577199 77.205061 30.11986566 69.29296875 22.31640625 C54.3036952 9.66230374 32.66912352 14 15 14 Z " fill="#ffffff" transform="translate(1412,963)"/>
  </g>
</svg>